<?xml version="1.0" standalone="no"?>
<!DOCTYPE svg PUBLIC "-//W3C//DTD SVG 1.1//EN" "http://www.w3.org/Graphics/SVG/1.1/DTD/svg11.dtd">
<svg version="1.1" width="1200" height="1478" onload="init(evt)" viewBox="0 0 1200 1478" xmlns="http://www.w3.org/2000/svg" xmlns:xlink="http://www.w3.org/1999/xlink">
<!-- Flame graph stack visualization. See https://github.com/brendangregg/FlameGraph for latest version, and http://www.brendangregg.com/flamegraphs.html for examples. -->
<!-- NOTES:  -->
<defs>
	<linearGradient id="background" y1="0" y2="1" x1="0" x2="0" >
		<stop stop-color="#eeeeee" offset="5%" />
		<stop stop-color="#eeeeb0" offset="95%" />
	</linearGradient>
</defs>
<style type="text/css">
	text { font-family:Verdana; font-size:12px; fill:rgb(0,0,0); }
	#search { opacity:0.1; cursor:pointer; }
	#search:hover, #search.show { opacity:1; }
	#subtitle { text-anchor:middle; font-color:rgb(160,160,160); }
	#title { text-anchor:middle; font-size:17px}
	#unzoom { cursor:pointer; }
	#frames > *:hover { stroke:black; stroke-width:0.5; cursor:pointer; }
	.hide { display:none; }
	.parent { opacity:0.5; }
</style>
<script type="text/ecmascript">
<![CDATA[
	"use strict";
	var details, searchbtn, unzoombtn, matchedtxt, svg, searching;
	function init(evt) {
		details = document.getElementById("details").firstChild;
		searchbtn = document.getElementById("search");
		unzoombtn = document.getElementById("unzoom");
		matchedtxt = document.getElementById("matched");
		svg = document.getElementsByTagName("svg")[0];
		searching = 0;
	}

	window.addEventListener("click", function(e) {
		var target = find_group(e.target);
		if (target) {
			if (target.nodeName == "a") {
				if (e.ctrlKey === false) return;
				e.preventDefault();
			}
			if (target.classList.contains("parent")) unzoom();
			zoom(target);
		}
		else if (e.target.id == "unzoom") unzoom();
		else if (e.target.id == "search") search_prompt();
	}, false)

	// mouse-over for info
	// show
	window.addEventListener("mouseover", function(e) {
		var target = find_group(e.target);
		if (target) details.nodeValue = "Function: " + g_to_text(target);
	}, false)

	// clear
	window.addEventListener("mouseout", function(e) {
		var target = find_group(e.target);
		if (target) details.nodeValue = ' ';
	}, false)

	// ctrl-F for search
	window.addEventListener("keydown",function (e) {
		if (e.keyCode === 114 || (e.ctrlKey && e.keyCode === 70)) {
			e.preventDefault();
			search_prompt();
		}
	}, false)

	// functions
	function find_child(node, selector) {
		var children = node.querySelectorAll(selector);
		if (children.length) return children[0];
		return;
	}
	function find_group(node) {
		var parent = node.parentElement;
		if (!parent) return;
		if (parent.id == "frames") return node;
		return find_group(parent);
	}
	function orig_save(e, attr, val) {
		if (e.attributes["_orig_" + attr] != undefined) return;
		if (e.attributes[attr] == undefined) return;
		if (val == undefined) val = e.attributes[attr].value;
		e.setAttribute("_orig_" + attr, val);
	}
	function orig_load(e, attr) {
		if (e.attributes["_orig_"+attr] == undefined) return;
		e.attributes[attr].value = e.attributes["_orig_" + attr].value;
		e.removeAttribute("_orig_"+attr);
	}
	function g_to_text(e) {
		var text = find_child(e, "title").firstChild.nodeValue;
		return (text)
	}
	function g_to_func(e) {
		var func = g_to_text(e);
		// if there's any manipulation we want to do to the function
		// name before it's searched, do it here before returning.
		return (func);
	}
	function update_text(e) {
		var r = find_child(e, "rect");
		var t = find_child(e, "text");
		var w = parseFloat(r.attributes.width.value) -3;
		var txt = find_child(e, "title").textContent.replace(/\([^(]*\)$/,"");
		t.attributes.x.value = parseFloat(r.attributes.x.value) + 3;

		// Smaller than this size won't fit anything
		if (w < 2 * 12 * 0.59) {
			t.textContent = "";
			return;
		}

		t.textContent = txt;
		// Fit in full text width
		if (/^ *$/.test(txt) || t.getSubStringLength(0, txt.length) < w)
			return;

		for (var x = txt.length - 2; x > 0; x--) {
			if (t.getSubStringLength(0, x + 2) <= w) {
				t.textContent = txt.substring(0, x) + "..";
				return;
			}
		}
		t.textContent = "";
	}

	// zoom
	function zoom_reset(e) {
		if (e.attributes != undefined) {
			orig_load(e, "x");
			orig_load(e, "width");
		}
		if (e.childNodes == undefined) return;
		for (var i = 0, c = e.childNodes; i < c.length; i++) {
			zoom_reset(c[i]);
		}
	}
	function zoom_child(e, x, ratio) {
		if (e.attributes != undefined) {
			if (e.attributes.x != undefined) {
				orig_save(e, "x");
				e.attributes.x.value = (parseFloat(e.attributes.x.value) - x - 10) * ratio + 10;
				if (e.tagName == "text")
					e.attributes.x.value = find_child(e.parentNode, "rect[x]").attributes.x.value + 3;
			}
			if (e.attributes.width != undefined) {
				orig_save(e, "width");
				e.attributes.width.value = parseFloat(e.attributes.width.value) * ratio;
			}
		}

		if (e.childNodes == undefined) return;
		for (var i = 0, c = e.childNodes; i < c.length; i++) {
			zoom_child(c[i], x - 10, ratio);
		}
	}
	function zoom_parent(e) {
		if (e.attributes) {
			if (e.attributes.x != undefined) {
				orig_save(e, "x");
				e.attributes.x.value = 10;
			}
			if (e.attributes.width != undefined) {
				orig_save(e, "width");
				e.attributes.width.value = parseInt(svg.width.baseVal.value) - (10 * 2);
			}
		}
		if (e.childNodes == undefined) return;
		for (var i = 0, c = e.childNodes; i < c.length; i++) {
			zoom_parent(c[i]);
		}
	}
	function zoom(node) {
		var attr = find_child(node, "rect").attributes;
		var width = parseFloat(attr.width.value);
		var xmin = parseFloat(attr.x.value);
		var xmax = parseFloat(xmin + width);
		var ymin = parseFloat(attr.y.value);
		var ratio = (svg.width.baseVal.value - 2 * 10) / width;

		// XXX: Workaround for JavaScript float issues (fix me)
		var fudge = 0.0001;

		unzoombtn.classList.remove("hide");

		var el = document.getElementById("frames").children;
		for (var i = 0; i < el.length; i++) {
			var e = el[i];
			var a = find_child(e, "rect").attributes;
			var ex = parseFloat(a.x.value);
			var ew = parseFloat(a.width.value);
			var upstack;
			// Is it an ancestor
			if (0 == 0) {
				upstack = parseFloat(a.y.value) > ymin;
			} else {
				upstack = parseFloat(a.y.value) < ymin;
			}
			if (upstack) {
				// Direct ancestor
				if (ex <= xmin && (ex+ew+fudge) >= xmax) {
					e.classList.add("parent");
					zoom_parent(e);
					update_text(e);
				}
				// not in current path
				else
					e.classList.add("hide");
			}
			// Children maybe
			else {
				// no common path
				if (ex < xmin || ex + fudge >= xmax) {
					e.classList.add("hide");
				}
				else {
					zoom_child(e, xmin, ratio);
					update_text(e);
				}
			}
		}
	}
	function unzoom() {
		unzoombtn.classList.add("hide");
		var el = document.getElementById("frames").children;
		for(var i = 0; i < el.length; i++) {
			el[i].classList.remove("parent");
			el[i].classList.remove("hide");
			zoom_reset(el[i]);
			update_text(el[i]);
		}
	}

	// search
	function reset_search() {
		var el = document.querySelectorAll("#frames rect");
		for (var i = 0; i < el.length; i++) {
			orig_load(el[i], "fill")
		}
	}
	function search_prompt() {
		if (!searching) {
			var term = prompt("Enter a search term (regexp " +
			    "allowed, eg: ^ext4_)", "");
			if (term != null) {
				search(term)
			}
		} else {
			reset_search();
			searching = 0;
			searchbtn.classList.remove("show");
			searchbtn.firstChild.nodeValue = "Search"
			matchedtxt.classList.add("hide");
			matchedtxt.firstChild.nodeValue = ""
		}
	}
	function search(term) {
		var re = new RegExp(term);
		var el = document.getElementById("frames").children;
		var matches = new Object();
		var maxwidth = 0;
		for (var i = 0; i < el.length; i++) {
			var e = el[i];
			var func = g_to_func(e);
			var rect = find_child(e, "rect");
			if (func == null || rect == null)
				continue;

			// Save max width. Only works as we have a root frame
			var w = parseFloat(rect.attributes.width.value);
			if (w > maxwidth)
				maxwidth = w;

			if (func.match(re)) {
				// highlight
				var x = parseFloat(rect.attributes.x.value);
				orig_save(rect, "fill");
				rect.attributes.fill.value = "rgb(230,0,230)";

				// remember matches
				if (matches[x] == undefined) {
					matches[x] = w;
				} else {
					if (w > matches[x]) {
						// overwrite with parent
						matches[x] = w;
					}
				}
				searching = 1;
			}
		}
		if (!searching)
			return;

		searchbtn.classList.add("show");
		searchbtn.firstChild.nodeValue = "Reset Search";

		// calculate percent matched, excluding vertical overlap
		var count = 0;
		var lastx = -1;
		var lastw = 0;
		var keys = Array();
		for (k in matches) {
			if (matches.hasOwnProperty(k))
				keys.push(k);
		}
		// sort the matched frames by their x location
		// ascending, then width descending
		keys.sort(function(a, b){
			return a - b;
		});
		// Step through frames saving only the biggest bottom-up frames
		// thanks to the sort order. This relies on the tree property
		// where children are always smaller than their parents.
		var fudge = 0.0001;	// JavaScript floating point
		for (var k in keys) {
			var x = parseFloat(keys[k]);
			var w = matches[keys[k]];
			if (x >= lastx + lastw - fudge) {
				count += w;
				lastx = x;
				lastw = w;
			}
		}
		// display matched percent
		matchedtxt.classList.remove("hide");
		var pct = 100 * count / maxwidth;
		if (pct != 100) pct = pct.toFixed(1)
		matchedtxt.firstChild.nodeValue = "Matched: " + pct + "%";
	}
]]>
</script>
<rect x="0.0" y="0" width="1200.0" height="1478.0" fill="url(#background)"  />
<text id="title" x="600.00" y="24" >Flame Graph</text>
<text id="details" x="10.00" y="1461" > </text>
<text id="unzoom" x="10.00" y="24" class="hide">Reset Zoom</text>
<text id="search" x="1090.00" y="24" >Search</text>
<text id="matched" x="1090.00" y="1461" > </text>
<g id="frames">
<g >
<title>[libjava.so] (9 samples, 0.93%)</title><rect x="1166.9" y="197" width="10.9" height="15.0" fill="rgb(235,101,101)" rx="2" ry="2" />
<text  x="1169.91" y="207.5" ></text>
</g>
<g >
<title>Interpreter (971 samples, 100.00%)</title><rect x="10.0" y="1061" width="1180.0" height="15.0" fill="rgb(243,112,112)" rx="2" ry="2" />
<text  x="13.00" y="1071.5" >Interpreter</text>
</g>
<g >
<title>start_thread (971 samples, 100.00%)</title><rect x="10.0" y="1397" width="1180.0" height="15.0" fill="rgb(237,104,104)" rx="2" ry="2" />
<text  x="13.00" y="1407.5" >start_thread</text>
</g>
<g >
<title>java/io/FileOutputStream:::writeBytes (1 samples, 0.10%)</title><rect x="1165.7" y="245" width="1.2" height="15.0" fill="rgb(77,224,77)" rx="2" ry="2" />
<text  x="1168.70" y="255.5" ></text>
</g>
<g >
<title>[libjvm.so] (971 samples, 100.00%)</title><rect x="10.0" y="341" width="1180.0" height="15.0" fill="rgb(235,101,101)" rx="2" ry="2" />
<text  x="13.00" y="351.5" >[libjvm.so]</text>
</g>
<g >
<title>prepare_exit_to_usermode (5 samples, 0.51%)</title><rect x="1183.9" y="261" width="6.1" height="15.0" fill="rgb(242,111,111)" rx="2" ry="2" />
<text  x="1186.92" y="271.5" ></text>
</g>
<g >
<title>Interpreter (971 samples, 100.00%)</title><rect x="10.0" y="533" width="1180.0" height="15.0" fill="rgb(243,112,112)" rx="2" ry="2" />
<text  x="13.00" y="543.5" >Interpreter</text>
</g>
<g >
<title>Interpreter (971 samples, 100.00%)</title><rect x="10.0" y="613" width="1180.0" height="15.0" fill="rgb(243,112,112)" rx="2" ry="2" />
<text  x="13.00" y="623.5" >Interpreter</text>
</g>
<g >
<title>do_syscall_64 (9 samples, 0.93%)</title><rect x="1166.9" y="149" width="10.9" height="15.0" fill="rgb(245,115,115)" rx="2" ry="2" />
<text  x="1169.91" y="159.5" ></text>
</g>
<g >
<title>Interpreter (971 samples, 100.00%)</title><rect x="10.0" y="917" width="1180.0" height="15.0" fill="rgb(243,112,112)" rx="2" ry="2" />
<text  x="13.00" y="927.5" >Interpreter</text>
</g>
<g >
<title>Interpreter (971 samples, 100.00%)</title><rect x="10.0" y="677" width="1180.0" height="15.0" fill="rgb(243,112,112)" rx="2" ry="2" />
<text  x="13.00" y="687.5" >Interpreter</text>
</g>
<g >
<title>Interpreter (971 samples, 100.00%)</title><rect x="10.0" y="581" width="1180.0" height="15.0" fill="rgb(243,112,112)" rx="2" ry="2" />
<text  x="13.00" y="591.5" >Interpreter</text>
</g>
<g >
<title>Interpreter (971 samples, 100.00%)</title><rect x="10.0" y="773" width="1180.0" height="15.0" fill="rgb(243,112,112)" rx="2" ry="2" />
<text  x="13.00" y="783.5" >Interpreter</text>
</g>
<g >
<title>Java_java_io_FileOutputStream_writeBytes (9 samples, 0.93%)</title><rect x="1166.9" y="213" width="10.9" height="15.0" fill="rgb(228,91,91)" rx="2" ry="2" />
<text  x="1169.91" y="223.5" ></text>
</g>
<g >
<title>Interpreter (971 samples, 100.00%)</title><rect x="10.0" y="981" width="1180.0" height="15.0" fill="rgb(243,112,112)" rx="2" ry="2" />
<text  x="13.00" y="991.5" >Interpreter</text>
</g>
<g >
<title>Interpreter (971 samples, 100.00%)</title><rect x="10.0" y="1221" width="1180.0" height="15.0" fill="rgb(243,112,112)" rx="2" ry="2" />
<text  x="13.00" y="1231.5" >Interpreter</text>
</g>
<g >
<title>hello/HelloController:::isPrime (7 samples, 0.72%)</title><rect x="10.0" y="277" width="8.5" height="15.0" fill="rgb(219,219,66)" rx="2" ry="2" />
<text  x="13.00" y="287.5" ></text>
</g>
<g >
<title>java/io/PrintStream:::newLine (1 samples, 0.10%)</title><rect x="1164.5" y="277" width="1.2" height="15.0" fill="rgb(77,224,77)" rx="2" ry="2" />
<text  x="1167.48" y="287.5" ></text>
</g>
<g >
<title>[libjava.so] (1 samples, 0.10%)</title><rect x="1165.7" y="213" width="1.2" height="15.0" fill="rgb(235,101,101)" rx="2" ry="2" />
<text  x="1168.70" y="223.5" ></text>
</g>
<g >
<title>__GI___libc_write (1 samples, 0.10%)</title><rect x="1165.7" y="197" width="1.2" height="15.0" fill="rgb(228,91,91)" rx="2" ry="2" />
<text  x="1168.70" y="207.5" ></text>
</g>
<g >
<title>copy_page_from_iter (2 samples, 0.21%)</title><rect x="1175.4" y="69" width="2.4" height="15.0" fill="rgb(233,98,98)" rx="2" ry="2" />
<text  x="1178.42" y="79.5" ></text>
</g>
<g >
<title>finish_task_switch (2 samples, 0.21%)</title><rect x="1187.6" y="213" width="2.4" height="15.0" fill="rgb(242,111,111)" rx="2" ry="2" />
<text  x="1190.57" y="223.5" ></text>
</g>
<g >
<title>Interpreter (971 samples, 100.00%)</title><rect x="10.0" y="789" width="1180.0" height="15.0" fill="rgb(243,112,112)" rx="2" ry="2" />
<text  x="13.00" y="799.5" >Interpreter</text>
</g>
<g >
<title>hello/HelloController:::isPrime (167 samples, 17.20%)</title><rect x="961.5" y="277" width="203.0" height="15.0" fill="rgb(219,219,66)" rx="2" ry="2" />
<text  x="964.53" y="287.5" >hello/HelloController:::is..</text>
</g>
<g >
<title>entry_SYSCALL_64_after_swapgs (5 samples, 0.51%)</title><rect x="1177.8" y="181" width="6.1" height="15.0" fill="rgb(246,118,118)" rx="2" ry="2" />
<text  x="1180.85" y="191.5" ></text>
</g>
<g >
<title>Interpreter (971 samples, 100.00%)</title><rect x="10.0" y="869" width="1180.0" height="15.0" fill="rgb(243,112,112)" rx="2" ry="2" />
<text  x="13.00" y="879.5" >Interpreter</text>
</g>
<g >
<title>Interpreter (971 samples, 100.00%)</title><rect x="10.0" y="933" width="1180.0" height="15.0" fill="rgb(243,112,112)" rx="2" ry="2" />
<text  x="13.00" y="943.5" >Interpreter</text>
</g>
<g >
<title>java/io/PrintStream:::write (10 samples, 1.03%)</title><rect x="1165.7" y="261" width="12.1" height="15.0" fill="rgb(77,224,77)" rx="2" ry="2" />
<text  x="1168.70" y="271.5" ></text>
</g>
<g >
<title>[libjvm.so] (971 samples, 100.00%)</title><rect x="10.0" y="1349" width="1180.0" height="15.0" fill="rgb(235,101,101)" rx="2" ry="2" />
<text  x="13.00" y="1359.5" >[libjvm.so]</text>
</g>
<g >
<title>Interpreter (971 samples, 100.00%)</title><rect x="10.0" y="725" width="1180.0" height="15.0" fill="rgb(243,112,112)" rx="2" ry="2" />
<text  x="13.00" y="735.5" >Interpreter</text>
</g>
<g >
<title>Interpreter (971 samples, 100.00%)</title><rect x="10.0" y="645" width="1180.0" height="15.0" fill="rgb(243,112,112)" rx="2" ry="2" />
<text  x="13.00" y="655.5" >Interpreter</text>
</g>
<g >
<title>sun/reflect/NativeMethodAccessorImpl:::invoke0 (971 samples, 100.00%)</title><rect x="10.0" y="405" width="1180.0" height="15.0" fill="rgb(88,235,88)" rx="2" ry="2" />
<text  x="13.00" y="415.5" >sun/reflect/NativeMethodAccessorImpl:::invoke0</text>
</g>
<g >
<title>java/io/PrintStream:::write (9 samples, 0.93%)</title><rect x="1166.9" y="245" width="10.9" height="15.0" fill="rgb(77,224,77)" rx="2" ry="2" />
<text  x="1169.91" y="255.5" ></text>
</g>
<g >
<title>hello/HelloController:::callout (964 samples, 99.28%)</title><rect x="18.5" y="293" width="1171.5" height="15.0" fill="rgb(219,219,66)" rx="2" ry="2" />
<text  x="21.51" y="303.5" >hello/HelloController:::callout</text>
</g>
<g >
<title>all (971 samples, 100%)</title><rect x="10.0" y="1429" width="1180.0" height="15.0" fill="rgb(255,130,130)" rx="2" ry="2" />
<text  x="13.00" y="1439.5" ></text>
</g>
<g >
<title>call_stub (971 samples, 100.00%)</title><rect x="10.0" y="325" width="1180.0" height="15.0" fill="rgb(226,89,89)" rx="2" ry="2" />
<text  x="13.00" y="335.5" >call_stub</text>
</g>
<g >
<title>schedule (2 samples, 0.21%)</title><rect x="1187.6" y="245" width="2.4" height="15.0" fill="rgb(239,107,107)" rx="2" ry="2" />
<text  x="1190.57" y="255.5" ></text>
</g>
<g >
<title>pipe_write (9 samples, 0.93%)</title><rect x="1166.9" y="85" width="10.9" height="15.0" fill="rgb(240,109,109)" rx="2" ry="2" />
<text  x="1169.91" y="95.5" ></text>
</g>
<g >
<title>__virt_addr_valid (1 samples, 0.10%)</title><rect x="1176.6" y="37" width="1.2" height="15.0" fill="rgb(229,92,92)" rx="2" ry="2" />
<text  x="1179.63" y="47.5" ></text>
</g>
<g >
<title>arch_local_irq_enable (2 samples, 0.21%)</title><rect x="1187.6" y="197" width="2.4" height="15.0" fill="rgb(234,100,100)" rx="2" ry="2" />
<text  x="1190.57" y="207.5" ></text>
</g>
<g >
<title>Interpreter (971 samples, 100.00%)</title><rect x="10.0" y="1173" width="1180.0" height="15.0" fill="rgb(243,112,112)" rx="2" ry="2" />
<text  x="13.00" y="1183.5" >Interpreter</text>
</g>
<g >
<title>arch_local_irq_restore (5 samples, 0.51%)</title><rect x="1177.8" y="69" width="6.1" height="15.0" fill="rgb(234,100,100)" rx="2" ry="2" />
<text  x="1180.85" y="79.5" ></text>
</g>
<g >
<title>Interpreter (971 samples, 100.00%)</title><rect x="10.0" y="901" width="1180.0" height="15.0" fill="rgb(243,112,112)" rx="2" ry="2" />
<text  x="13.00" y="911.5" >Interpreter</text>
</g>
<g >
<title>Interpreter (971 samples, 100.00%)</title><rect x="10.0" y="709" width="1180.0" height="15.0" fill="rgb(243,112,112)" rx="2" ry="2" />
<text  x="13.00" y="719.5" >Interpreter</text>
</g>
<g >
<title>__check_object_size (1 samples, 0.10%)</title><rect x="1176.6" y="53" width="1.2" height="15.0" fill="rgb(234,100,100)" rx="2" ry="2" />
<text  x="1179.63" y="63.5" ></text>
</g>
<g >
<title>Interpreter (971 samples, 100.00%)</title><rect x="10.0" y="1045" width="1180.0" height="15.0" fill="rgb(243,112,112)" rx="2" ry="2" />
<text  x="13.00" y="1055.5" >Interpreter</text>
</g>
<g >
<title>Interpreter (971 samples, 100.00%)</title><rect x="10.0" y="853" width="1180.0" height="15.0" fill="rgb(243,112,112)" rx="2" ry="2" />
<text  x="13.00" y="863.5" >Interpreter</text>
</g>
<g >
<title>[libjava.so] (5 samples, 0.51%)</title><rect x="1177.8" y="213" width="6.1" height="15.0" fill="rgb(235,101,101)" rx="2" ry="2" />
<text  x="1180.85" y="223.5" ></text>
</g>
<g >
<title>fput (1 samples, 0.10%)</title><rect x="1164.5" y="133" width="1.2" height="15.0" fill="rgb(241,110,110)" rx="2" ry="2" />
<text  x="1167.48" y="143.5" ></text>
</g>
<g >
<title>schedule (1 samples, 0.10%)</title><rect x="1165.7" y="149" width="1.2" height="15.0" fill="rgb(239,107,107)" rx="2" ry="2" />
<text  x="1168.70" y="159.5" ></text>
</g>
<g >
<title>Interpreter (971 samples, 100.00%)</title><rect x="10.0" y="1189" width="1180.0" height="15.0" fill="rgb(243,112,112)" rx="2" ry="2" />
<text  x="13.00" y="1199.5" >Interpreter</text>
</g>
<g >
<title>arch_local_irq_restore (7 samples, 0.72%)</title><rect x="1166.9" y="53" width="8.5" height="15.0" fill="rgb(234,100,100)" rx="2" ry="2" />
<text  x="1169.91" y="63.5" ></text>
</g>
<g >
<title>Interpreter (971 samples, 100.00%)</title><rect x="10.0" y="501" width="1180.0" height="15.0" fill="rgb(243,112,112)" rx="2" ry="2" />
<text  x="13.00" y="511.5" >Interpreter</text>
</g>
<g >
<title>__GI___libc_write (5 samples, 0.51%)</title><rect x="1177.8" y="197" width="6.1" height="15.0" fill="rgb(228,91,91)" rx="2" ry="2" />
<text  x="1180.85" y="207.5" ></text>
</g>
<g >
<title>sys_write (5 samples, 0.51%)</title><rect x="1177.8" y="149" width="6.1" height="15.0" fill="rgb(240,108,108)" rx="2" ry="2" />
<text  x="1180.85" y="159.5" ></text>
</g>
<g >
<title>Interpreter (971 samples, 100.00%)</title><rect x="10.0" y="309" width="1180.0" height="15.0" fill="rgb(243,112,112)" rx="2" ry="2" />
<text  x="13.00" y="319.5" >Interpreter</text>
</g>
<g >
<title>Interpreter (971 samples, 100.00%)</title><rect x="10.0" y="1205" width="1180.0" height="15.0" fill="rgb(243,112,112)" rx="2" ry="2" />
<text  x="13.00" y="1215.5" >Interpreter</text>
</g>
<g >
<title>Interpreter (971 samples, 100.00%)</title><rect x="10.0" y="549" width="1180.0" height="15.0" fill="rgb(243,112,112)" rx="2" ry="2" />
<text  x="13.00" y="559.5" >Interpreter</text>
</g>
<g >
<title>Interpreter (971 samples, 100.00%)</title><rect x="10.0" y="965" width="1180.0" height="15.0" fill="rgb(243,112,112)" rx="2" ry="2" />
<text  x="13.00" y="975.5" >Interpreter</text>
</g>
<g >
<title>java/io/FileOutputStream:::writeBytes (5 samples, 0.51%)</title><rect x="1177.8" y="245" width="6.1" height="15.0" fill="rgb(77,224,77)" rx="2" ry="2" />
<text  x="1180.85" y="255.5" ></text>
</g>
<g >
<title>atomic64_dec_and_test (1 samples, 0.10%)</title><rect x="1164.5" y="117" width="1.2" height="15.0" fill="rgb(232,96,96)" rx="2" ry="2" />
<text  x="1167.48" y="127.5" ></text>
</g>
<g >
<title>Interpreter (971 samples, 100.00%)</title><rect x="10.0" y="565" width="1180.0" height="15.0" fill="rgb(243,112,112)" rx="2" ry="2" />
<text  x="13.00" y="575.5" >Interpreter</text>
</g>
<g >
<title>finish_task_switch (1 samples, 0.10%)</title><rect x="1165.7" y="117" width="1.2" height="15.0" fill="rgb(242,111,111)" rx="2" ry="2" />
<text  x="1168.70" y="127.5" ></text>
</g>
<g >
<title>prepare_exit_to_usermode (1 samples, 0.10%)</title><rect x="1165.7" y="165" width="1.2" height="15.0" fill="rgb(242,111,111)" rx="2" ry="2" />
<text  x="1168.70" y="175.5" ></text>
</g>
<g >
<title>Interpreter (971 samples, 100.00%)</title><rect x="10.0" y="757" width="1180.0" height="15.0" fill="rgb(243,112,112)" rx="2" ry="2" />
<text  x="13.00" y="767.5" >Interpreter</text>
</g>
<g >
<title>Interpreter (971 samples, 100.00%)</title><rect x="10.0" y="1109" width="1180.0" height="15.0" fill="rgb(243,112,112)" rx="2" ry="2" />
<text  x="13.00" y="1119.5" >Interpreter</text>
</g>
<g >
<title>java/io/FileOutputStream:::writeBytes (1 samples, 0.10%)</title><rect x="1164.5" y="245" width="1.2" height="15.0" fill="rgb(77,224,77)" rx="2" ry="2" />
<text  x="1167.48" y="255.5" ></text>
</g>
<g >
<title>arch_local_irq_enable (1 samples, 0.10%)</title><rect x="1165.7" y="101" width="1.2" height="15.0" fill="rgb(234,100,100)" rx="2" ry="2" />
<text  x="1168.70" y="111.5" ></text>
</g>
<g >
<title>sys_write (9 samples, 0.93%)</title><rect x="1166.9" y="133" width="10.9" height="15.0" fill="rgb(240,108,108)" rx="2" ry="2" />
<text  x="1169.91" y="143.5" ></text>
</g>
<g >
<title>[libjvm.so] (971 samples, 100.00%)</title><rect x="10.0" y="1317" width="1180.0" height="15.0" fill="rgb(235,101,101)" rx="2" ry="2" />
<text  x="13.00" y="1327.5" >[libjvm.so]</text>
</g>
<g >
<title>Interpreter (971 samples, 100.00%)</title><rect x="10.0" y="469" width="1180.0" height="15.0" fill="rgb(243,112,112)" rx="2" ry="2" />
<text  x="13.00" y="479.5" >Interpreter</text>
</g>
<g >
<title>[libjava.so] (1 samples, 0.10%)</title><rect x="1164.5" y="213" width="1.2" height="15.0" fill="rgb(235,101,101)" rx="2" ry="2" />
<text  x="1167.48" y="223.5" ></text>
</g>
<g >
<title>__GI___libc_write (1 samples, 0.10%)</title><rect x="1164.5" y="197" width="1.2" height="15.0" fill="rgb(228,91,91)" rx="2" ry="2" />
<text  x="1167.48" y="207.5" ></text>
</g>
<g >
<title>Interpreter (971 samples, 100.00%)</title><rect x="10.0" y="741" width="1180.0" height="15.0" fill="rgb(243,112,112)" rx="2" ry="2" />
<text  x="13.00" y="751.5" >Interpreter</text>
</g>
<g >
<title>java/lang/reflect/Method:::invoke (971 samples, 100.00%)</title><rect x="10.0" y="453" width="1180.0" height="15.0" fill="rgb(77,224,77)" rx="2" ry="2" />
<text  x="13.00" y="463.5" >java/lang/reflect/Method:::invoke</text>
</g>
<g >
<title>call_stub (971 samples, 100.00%)</title><rect x="10.0" y="1269" width="1180.0" height="15.0" fill="rgb(226,89,89)" rx="2" ry="2" />
<text  x="13.00" y="1279.5" >call_stub</text>
</g>
<g >
<title>do_syscall_64 (5 samples, 0.51%)</title><rect x="1177.8" y="165" width="6.1" height="15.0" fill="rgb(245,115,115)" rx="2" ry="2" />
<text  x="1180.85" y="175.5" ></text>
</g>
<g >
<title>sun/reflect/NativeMethodAccessorImpl:::invoke (971 samples, 100.00%)</title><rect x="10.0" y="421" width="1180.0" height="15.0" fill="rgb(88,235,88)" rx="2" ry="2" />
<text  x="13.00" y="431.5" >sun/reflect/NativeMethodAccessorImpl:::invoke</text>
</g>
<g >
<title>Java_java_io_FileOutputStream_writeBytes (1 samples, 0.10%)</title><rect x="1165.7" y="229" width="1.2" height="15.0" fill="rgb(228,91,91)" rx="2" ry="2" />
<text  x="1168.70" y="239.5" ></text>
</g>
<g >
<title>[libjvm.so] (971 samples, 100.00%)</title><rect x="10.0" y="1333" width="1180.0" height="15.0" fill="rgb(235,101,101)" rx="2" ry="2" />
<text  x="13.00" y="1343.5" >[libjvm.so]</text>
</g>
<g >
<title>[libjvm.so] (971 samples, 100.00%)</title><rect x="10.0" y="1285" width="1180.0" height="15.0" fill="rgb(235,101,101)" rx="2" ry="2" />
<text  x="13.00" y="1295.5" >[libjvm.so]</text>
</g>
<g >
<title>__GI___libc_write (9 samples, 0.93%)</title><rect x="1166.9" y="181" width="10.9" height="15.0" fill="rgb(228,91,91)" rx="2" ry="2" />
<text  x="1169.91" y="191.5" ></text>
</g>
<g >
<title>Interpreter (971 samples, 100.00%)</title><rect x="10.0" y="1013" width="1180.0" height="15.0" fill="rgb(243,112,112)" rx="2" ry="2" />
<text  x="13.00" y="1023.5" >Interpreter</text>
</g>
<g >
<title>java/io/FileOutputStream:::writeBytes (9 samples, 0.93%)</title><rect x="1166.9" y="229" width="10.9" height="15.0" fill="rgb(77,224,77)" rx="2" ry="2" />
<text  x="1169.91" y="239.5" ></text>
</g>
<g >
<title>Interpreter (971 samples, 100.00%)</title><rect x="10.0" y="837" width="1180.0" height="15.0" fill="rgb(243,112,112)" rx="2" ry="2" />
<text  x="13.00" y="847.5" >Interpreter</text>
</g>
<g >
<title>[libjvm.so] (971 samples, 100.00%)</title><rect x="10.0" y="357" width="1180.0" height="15.0" fill="rgb(235,101,101)" rx="2" ry="2" />
<text  x="13.00" y="367.5" >[libjvm.so]</text>
</g>
<g >
<title>__lock_text_start (7 samples, 0.72%)</title><rect x="1166.9" y="69" width="8.5" height="15.0" fill="rgb(236,103,103)" rx="2" ry="2" />
<text  x="1169.91" y="79.5" ></text>
</g>
<g >
<title>pipe_write (5 samples, 0.51%)</title><rect x="1177.8" y="101" width="6.1" height="15.0" fill="rgb(240,109,109)" rx="2" ry="2" />
<text  x="1180.85" y="111.5" ></text>
</g>
<g >
<title>Interpreter (971 samples, 100.00%)</title><rect x="10.0" y="1141" width="1180.0" height="15.0" fill="rgb(243,112,112)" rx="2" ry="2" />
<text  x="13.00" y="1151.5" >Interpreter</text>
</g>
<g >
<title>vfs_write (9 samples, 0.93%)</title><rect x="1166.9" y="117" width="10.9" height="15.0" fill="rgb(230,94,94)" rx="2" ry="2" />
<text  x="1169.91" y="127.5" ></text>
</g>
<g >
<title>Interpreter (971 samples, 100.00%)</title><rect x="10.0" y="1029" width="1180.0" height="15.0" fill="rgb(243,112,112)" rx="2" ry="2" />
<text  x="13.00" y="1039.5" >Interpreter</text>
</g>
<g >
<title>Interpreter (971 samples, 100.00%)</title><rect x="10.0" y="997" width="1180.0" height="15.0" fill="rgb(243,112,112)" rx="2" ry="2" />
<text  x="13.00" y="1007.5" >Interpreter</text>
</g>
<g >
<title>Interpreter (971 samples, 100.00%)</title><rect x="10.0" y="821" width="1180.0" height="15.0" fill="rgb(243,112,112)" rx="2" ry="2" />
<text  x="13.00" y="831.5" >Interpreter</text>
</g>
<g >
<title>sun/reflect/DelegatingMethodAccessorImpl:::invoke (971 samples, 100.00%)</title><rect x="10.0" y="437" width="1180.0" height="15.0" fill="rgb(88,235,88)" rx="2" ry="2" />
<text  x="13.00" y="447.5" >sun/reflect/DelegatingMethodAccessorImpl:::invoke</text>
</g>
<g >
<title>java/io/PrintStream:::write (5 samples, 0.51%)</title><rect x="1177.8" y="261" width="6.1" height="15.0" fill="rgb(77,224,77)" rx="2" ry="2" />
<text  x="1180.85" y="271.5" ></text>
</g>
<g >
<title>[libjvm.so] (971 samples, 100.00%)</title><rect x="10.0" y="1381" width="1180.0" height="15.0" fill="rgb(235,101,101)" rx="2" ry="2" />
<text  x="13.00" y="1391.5" >[libjvm.so]</text>
</g>
<g >
<title>arch_local_irq_enable (3 samples, 0.31%)</title><rect x="1183.9" y="245" width="3.7" height="15.0" fill="rgb(234,100,100)" rx="2" ry="2" />
<text  x="1186.92" y="255.5" ></text>
</g>
<g >
<title>Interpreter (971 samples, 100.00%)</title><rect x="10.0" y="1157" width="1180.0" height="15.0" fill="rgb(243,112,112)" rx="2" ry="2" />
<text  x="13.00" y="1167.5" >Interpreter</text>
</g>
<g >
<title>Interpreter (971 samples, 100.00%)</title><rect x="10.0" y="1253" width="1180.0" height="15.0" fill="rgb(243,112,112)" rx="2" ry="2" />
<text  x="13.00" y="1263.5" >Interpreter</text>
</g>
<g >
<title>Interpreter (971 samples, 100.00%)</title><rect x="10.0" y="693" width="1180.0" height="15.0" fill="rgb(243,112,112)" rx="2" ry="2" />
<text  x="13.00" y="703.5" >Interpreter</text>
</g>
<g >
<title>entry_SYSCALL_64_after_swapgs (1 samples, 0.10%)</title><rect x="1164.5" y="181" width="1.2" height="15.0" fill="rgb(246,118,118)" rx="2" ry="2" />
<text  x="1167.48" y="191.5" ></text>
</g>
<g >
<title>Interpreter (971 samples, 100.00%)</title><rect x="10.0" y="949" width="1180.0" height="15.0" fill="rgb(243,112,112)" rx="2" ry="2" />
<text  x="13.00" y="959.5" >Interpreter</text>
</g>
<g >
<title>__vfs_write (9 samples, 0.93%)</title><rect x="1166.9" y="101" width="10.9" height="15.0" fill="rgb(229,92,92)" rx="2" ry="2" />
<text  x="1169.91" y="111.5" ></text>
</g>
<g >
<title>[libjvm.so] (971 samples, 100.00%)</title><rect x="10.0" y="1365" width="1180.0" height="15.0" fill="rgb(235,101,101)" rx="2" ry="2" />
<text  x="13.00" y="1375.5" >[libjvm.so]</text>
</g>
<g >
<title>JVM_InvokeMethod (971 samples, 100.00%)</title><rect x="10.0" y="389" width="1180.0" height="15.0" fill="rgb(232,97,97)" rx="2" ry="2" />
<text  x="13.00" y="399.5" >JVM_InvokeMethod</text>
</g>
<g >
<title>Interpreter (971 samples, 100.00%)</title><rect x="10.0" y="597" width="1180.0" height="15.0" fill="rgb(243,112,112)" rx="2" ry="2" />
<text  x="13.00" y="607.5" >Interpreter</text>
</g>
<g >
<title>java/io/PrintStream:::write (1 samples, 0.10%)</title><rect x="1164.5" y="261" width="1.2" height="15.0" fill="rgb(77,224,77)" rx="2" ry="2" />
<text  x="1167.48" y="271.5" ></text>
</g>
<g >
<title>__schedule (2 samples, 0.21%)</title><rect x="1187.6" y="229" width="2.4" height="15.0" fill="rgb(231,95,95)" rx="2" ry="2" />
<text  x="1190.57" y="239.5" ></text>
</g>
<g >
<title>Interpreter (971 samples, 100.00%)</title><rect x="10.0" y="885" width="1180.0" height="15.0" fill="rgb(243,112,112)" rx="2" ry="2" />
<text  x="13.00" y="895.5" >Interpreter</text>
</g>
<g >
<title>Interpreter (971 samples, 100.00%)</title><rect x="10.0" y="1093" width="1180.0" height="15.0" fill="rgb(243,112,112)" rx="2" ry="2" />
<text  x="13.00" y="1103.5" >Interpreter</text>
</g>
<g >
<title>__lock_text_start (5 samples, 0.51%)</title><rect x="1177.8" y="85" width="6.1" height="15.0" fill="rgb(236,103,103)" rx="2" ry="2" />
<text  x="1180.85" y="95.5" ></text>
</g>
<g >
<title>Interpreter (971 samples, 100.00%)</title><rect x="10.0" y="805" width="1180.0" height="15.0" fill="rgb(243,112,112)" rx="2" ry="2" />
<text  x="13.00" y="815.5" >Interpreter</text>
</g>
<g >
<title>[libjvm.so] (971 samples, 100.00%)</title><rect x="10.0" y="1301" width="1180.0" height="15.0" fill="rgb(235,101,101)" rx="2" ry="2" />
<text  x="13.00" y="1311.5" >[libjvm.so]</text>
</g>
<g >
<title>Java_java_io_FileOutputStream_writeBytes (5 samples, 0.51%)</title><rect x="1177.8" y="229" width="6.1" height="15.0" fill="rgb(228,91,91)" rx="2" ry="2" />
<text  x="1180.85" y="239.5" ></text>
</g>
<g >
<title>entry_SYSCALL_64_after_swapgs (1 samples, 0.10%)</title><rect x="1165.7" y="181" width="1.2" height="15.0" fill="rgb(246,118,118)" rx="2" ry="2" />
<text  x="1168.70" y="191.5" ></text>
</g>
<g >
<title>Interpreter (971 samples, 100.00%)</title><rect x="10.0" y="1125" width="1180.0" height="15.0" fill="rgb(243,112,112)" rx="2" ry="2" />
<text  x="13.00" y="1135.5" >Interpreter</text>
</g>
<g >
<title>do_syscall_64 (1 samples, 0.10%)</title><rect x="1164.5" y="165" width="1.2" height="15.0" fill="rgb(245,115,115)" rx="2" ry="2" />
<text  x="1167.48" y="175.5" ></text>
</g>
<g >
<title>vfs_write (5 samples, 0.51%)</title><rect x="1177.8" y="133" width="6.1" height="15.0" fill="rgb(230,94,94)" rx="2" ry="2" />
<text  x="1180.85" y="143.5" ></text>
</g>
<g >
<title>Java_java_io_FileOutputStream_writeBytes (1 samples, 0.10%)</title><rect x="1164.5" y="229" width="1.2" height="15.0" fill="rgb(228,91,91)" rx="2" ry="2" />
<text  x="1167.48" y="239.5" ></text>
</g>
<g >
<title>Interpreter (971 samples, 100.00%)</title><rect x="10.0" y="485" width="1180.0" height="15.0" fill="rgb(243,112,112)" rx="2" ry="2" />
<text  x="13.00" y="495.5" >Interpreter</text>
</g>
<g >
<title>__vfs_write (5 samples, 0.51%)</title><rect x="1177.8" y="117" width="6.1" height="15.0" fill="rgb(229,92,92)" rx="2" ry="2" />
<text  x="1180.85" y="127.5" ></text>
</g>
<g >
<title>retint_user (5 samples, 0.51%)</title><rect x="1183.9" y="277" width="6.1" height="15.0" fill="rgb(238,106,106)" rx="2" ry="2" />
<text  x="1186.92" y="287.5" ></text>
</g>
<g >
<title>Interpreter (971 samples, 100.00%)</title><rect x="10.0" y="517" width="1180.0" height="15.0" fill="rgb(243,112,112)" rx="2" ry="2" />
<text  x="13.00" y="527.5" >Interpreter</text>
</g>
<g >
<title>Interpreter (971 samples, 100.00%)</title><rect x="10.0" y="1237" width="1180.0" height="15.0" fill="rgb(243,112,112)" rx="2" ry="2" />
<text  x="13.00" y="1247.5" >Interpreter</text>
</g>
<g >
<title>entry_SYSCALL_64_after_swapgs (9 samples, 0.93%)</title><rect x="1166.9" y="165" width="10.9" height="15.0" fill="rgb(246,118,118)" rx="2" ry="2" />
<text  x="1169.91" y="175.5" ></text>
</g>
<g >
<title>Interpreter (971 samples, 100.00%)</title><rect x="10.0" y="661" width="1180.0" height="15.0" fill="rgb(243,112,112)" rx="2" ry="2" />
<text  x="13.00" y="671.5" >Interpreter</text>
</g>
<g >
<title>[libjvm.so] (971 samples, 100.00%)</title><rect x="10.0" y="373" width="1180.0" height="15.0" fill="rgb(235,101,101)" rx="2" ry="2" />
<text  x="13.00" y="383.5" >[libjvm.so]</text>
</g>
<g >
<title>sys_write (1 samples, 0.10%)</title><rect x="1164.5" y="149" width="1.2" height="15.0" fill="rgb(240,108,108)" rx="2" ry="2" />
<text  x="1167.48" y="159.5" ></text>
</g>
<g >
<title>Interpreter (971 samples, 100.00%)</title><rect x="10.0" y="1077" width="1180.0" height="15.0" fill="rgb(243,112,112)" rx="2" ry="2" />
<text  x="13.00" y="1087.5" >Interpreter</text>
</g>
<g >
<title>Interpreter (7 samples, 0.72%)</title><rect x="10.0" y="293" width="8.5" height="15.0" fill="rgb(243,112,112)" rx="2" ry="2" />
<text  x="13.00" y="303.5" ></text>
</g>
<g >
<title>java (971 samples, 100.00%)</title><rect x="10.0" y="1413" width="1180.0" height="15.0" fill="rgb(224,86,86)" rx="2" ry="2" />
<text  x="13.00" y="1423.5" >java</text>
</g>
<g >
<title>java/io/PrintStream:::println (10 samples, 1.03%)</title><rect x="1165.7" y="277" width="12.1" height="15.0" fill="rgb(77,224,77)" rx="2" ry="2" />
<text  x="1168.70" y="287.5" ></text>
</g>
<g >
<title>Interpreter (971 samples, 100.00%)</title><rect x="10.0" y="629" width="1180.0" height="15.0" fill="rgb(243,112,112)" rx="2" ry="2" />
<text  x="13.00" y="639.5" >Interpreter</text>
</g>
<g >
<title>__schedule (1 samples, 0.10%)</title><rect x="1165.7" y="133" width="1.2" height="15.0" fill="rgb(231,95,95)" rx="2" ry="2" />
<text  x="1168.70" y="143.5" ></text>
</g>
<g >
<title>java/io/PrintStream:::write (5 samples, 0.51%)</title><rect x="1177.8" y="277" width="6.1" height="15.0" fill="rgb(77,224,77)" rx="2" ry="2" />
<text  x="1180.85" y="287.5" ></text>
</g>
</g>
</svg>
